<?xml version="1.0"?>
<svg version="1.1" xmlns="http://www.w3.org/2000/svg" width="400" height="50" style=""><path fill="#2b3d4a" d="M16.07666015625,39.62890625q0.1025390625-2.7685546875,0.179443359375-5.673828125t0.145263671875-5.733642578125t0.1025390625-5.494384765625t0.0341796875-4.97314453125q0.0341796875-0.46142578125,0.80322265625-0.73486328125t1.837158203125-0.401611328125t2.255859375-0.162353515625t2.110595703125-0.0341796875q0.205078125,0,0.8544921875-0.01708984375l0.32470703125,0q0.49560546875,0,1.04248046875,0.0341796875q0.7177734375,0.05126953125,1.256103515625,0.22216796875t0.538330078125,0.49560546875q0,0.2392578125-0.18798828125,0.384521484375t-0.435791015625,0.213623046875t-0.5126953125,0.08544921875t-0.367431640625,0.01708984375q-1.6064453125,0-3.1787109375-0.05126953125q-0.42724609375-0.01708984375-0.87158203125-0.01708984375q-1.162109375,0-2.3583984375,0.1025390625q0.068359375,0.205078125,0.111083984375,1.239013671875t0.042724609375,2.332763671875t-0.01708984375,2.537841796875t0,1.905517578125l0,4.443359375q0.52978515625-0.0341796875,1.04248046875-0.0341796875l1.025390625,0l0.68359375-0.0341796875q0.341796875-0.01708984375,0.7177734375-0.01708984375q0.39306640625,0,0.80322265625,0.01708984375q0.8203125,0.0341796875,1.495361328125,0.196533203125t0.675048828125,0.572509765625q0,0.3076171875-0.25634765625,0.452880859375t-0.572509765625,0.213623046875t-0.59814453125,0.068359375l-0.316162109375,0q-0.97412109375,0-2.025146484375-0.068359375t-1.956787109375-0.068359375q-0.1708984375,0.068359375-0.367431640625,0.05126953125t-0.350341796875-0.01708984375q0,2.5634765625-0.05126953125,5.101318359375t-0.11962890625,5.050048828125q0,0.49560546875-0.623779296875,0.6494140625t-1.187744140625,0.15380859375q-0.63232421875,0-0.999755859375-0.15380859375t-0.521240234375-0.504150390625t-0.18798828125-0.931396484375q-0.01708984375-0.32470703125-0.0341796875-0.7177734375q0-0.32470703125,0.01708984375-0.70068359375z M30.050512695313,33.7158203125l0-2.7001953125q0-2.802734375,0.093994140625-5.562744140625t0.162353515625-5.562744140625q0-0.52978515625-0.0341796875-1.17919921875q-0.01708984375-0.18798828125-0.01708984375-0.35888671875q0-0.42724609375,0.068359375-0.83740234375q0.08544921875-0.546875,0.418701171875-0.93994140625t1.102294921875-0.39306640625q0.63232421875,0,0.965576171875,0.13671875t0.469970703125,0.401611328125t0.15380859375,0.66650390625t0.01708984375,0.931396484375q0,2.8369140625-0.068359375,5.69091796875q-0.05126953125,1.89697265625-0.05126953125,3.7939453125q0,0.95703125,0.01708984375,1.9140625q0.0341796875,2.8369140625,0.264892578125,5.673828125t0.777587890625,5.60546875q1.708984375-0.068359375,3.41796875-0.1708984375t3.41796875-0.1025390625q0.1708984375,0,0.487060546875,0.0341796875t0.63232421875,0.11962890625t0.538330078125,0.22216796875t0.22216796875,0.39306640625q0,0.1708984375-0.15380859375,0.29052734375t-0.29052734375,0.18798828125l-0.0341796875,0q-0.2734375,0.13671875-1.085205078125,0.264892578125t-1.845703125,0.196533203125t-2.17041015625,0.11962890625t-2.13623046875,0.08544921875t-1.734619140625,0.05126953125t-0.90576171875,0.01708984375l-0.15380859375,0q-0.41015625,0-0.9228515625-0.13671875q-0.615234375-0.1708984375-0.76904296875-0.66650390625q-0.3076171875-1.2646484375-0.487060546875-2.623291015625t-0.2734375-2.760009765625t-0.093994140625-2.802734375z M45.562451171875,30.41748046875q0-1.00830078125,0.111083984375-2.44384765625t0.41015625-2.99072265625t0.80322265625-3.09326171875t1.290283203125-2.71728515625t1.8798828125-1.86279296875q0.90576171875-0.56396484375,2.0849609375-0.56396484375q0.2392578125,0,0.49560546875,0.0341796875q2.9736328125,0.2734375,4.571533203125,1.358642578125t2.332763671875,2.75146484375t0.8544921875,3.7939453125t0.11962890625,4.486083984375q0,1.89697265625-0.350341796875,4.127197265625t-1.239013671875,4.161376953125t-2.452392578125,3.221435546875t-3.973388671875,1.290283203125q-1.4697265625,0-2.572021484375-0.538330078125t-1.871337890625-1.435546875t-1.2646484375-2.0849609375t-0.751953125-2.4609375t-0.367431640625-2.572021484375t-0.111083984375-2.4609375z M49.031689453125,29.6484375q0,0.73486328125,0.01708984375,1.802978515625t0.145263671875,2.247314453125t0.333251953125,2.349853515625t0.606689453125,2.127685546875t1.016845703125,1.572265625t1.48681640625,0.6494140625l0.08544921875,0q0.7861328125,0,1.4013671875-0.59814453125q0.6494140625-0.63232421875,1.153564453125-1.52099609375t0.87158203125-1.871337890625t0.657958984375-1.683349609375l-0.068359375,0.15380859375q0.49560546875-1.572265625,0.66650390625-3.221435546875t0.1708984375-3.255615234375q0-0.76904296875-0.1025390625-1.854248046875t-0.333251953125-2.264404296875t-0.59814453125-2.332763671875t-0.931396484375-2.008056640625t-1.31591796875-1.298828125q-0.546875-0.32470703125-1.21337890625-0.341796875q-0.25634765625,0-0.5126953125,0.05126953125q-0.87158203125,0.1708984375-1.48681640625,0.8544921875t-0.999755859375,1.683349609375t-0.589599609375,2.1875t-0.316162109375,2.392578125t-0.128173828125,2.30712890625t-0.01708984375,1.871337890625z M56.739208984375,34.912109375l0-0.0341796875l0,0.0341796875z M64.048022460938,16.64306640625q0-0.341796875,0.52978515625-0.487060546875t0.87158203125-0.145263671875q0.39306640625,0,0.863037109375,0.1025390625t0.572509765625,0.52978515625q0.49560546875,1.99951171875,0.760498046875,4.075927734375t0.401611328125,4.178466796875t0.22216796875,4.178466796875t0.18798828125,4.110107421875q0.46142578125-2.03369140625,0.948486328125-4.041748046875t1.273193359375-4.007568359375l0-1.3671875q0-0.87158203125,0.606689453125-1.256103515625t1.632080078125-0.384521484375q0.1025390625,0,0.469970703125,0.05126953125t0.367431640625,0.341796875q-0.068359375,0.205078125-0.162353515625,0.39306640625t-0.093994140625,0.41015625q0,2.59765625,0.615234375,5.323486328125t1.21337890625,5.306396484375q0.341796875-2.20458984375,0.7861328125-4.39208984375t0.9228515625-4.35791015625q0.63232421875-2.9052734375,0.965576171875-4.827880859375t0.63232421875-3.0419921875t0.6494140625-1.58935546875t0.982666015625-0.469970703125q0.39306640625-0.0341796875,0.73486328125,0.13671875t0.2734375,0.56396484375q-1.23046875,5.947265625-2.298583984375,11.9287109375t-2.178955078125,11.962890625q0,0.341796875,0.11962890625,0.80322265625t0.11962890625,0.8203125q0,0.205078125-0.18798828125,0.341796875t-0.452880859375,0.230712890625t-0.5810546875,0.128173828125t-0.555419921875,0.0341796875q-0.52978515625,0-1.11083984375-0.162353515625t-0.751953125-0.931396484375q-0.59814453125-2.666015625-1.102294921875-5.357666015625t-0.931396484375-5.426025390625q-0.13671875,0.63232421875-0.25634765625,1.28173828125t-0.22216796875,1.31591796875q-0.49560546875,2.9052734375-1.09375,5.810546875t-0.59814453125,5.87890625q0,0.73486328125-0.3076171875,0.948486328125t-1.04248046875,0.213623046875q-0.56396484375,0-0.95703125-0.18798828125q-0.3076171875-0.1708984375-0.5810546875-0.3076171875q-0.2392578125-0.13671875-0.435791015625-0.316162109375t-0.196533203125-0.350341796875q-0.2734375-3.70849609375-0.384521484375-7.36572265625t-0.247802734375-7.36572265625q-0.13671875-3.33251953125-0.401611328125-6.656494140625t-0.589599609375-6.605224609375z M84.80654296875,40.654296875q0.0341796875-0.7177734375,0.0341796875-1.4013671875q0-2.47802734375,0.179443359375-4.93896484375t0.247802734375-4.93896484375q0.1025390625-2.8369140625,0.18798828125-5.62255859375t0.341796875-5.60546875q0.068359375-0.70068359375,0.401611328125-0.914306640625t0.999755859375-0.213623046875q0.3076171875,0,0.8203125,0.11962890625t0.5126953125,0.5810546875q0.2392578125,0.0341796875,0.478515625,0.0341796875q0.35888671875,0,0.73486328125-0.068359375q0.615234375-0.1025390625,1.256103515625-0.230712890625t1.273193359375-0.247802734375t1.21337890625-0.11962890625q0.13671875,0,0.384521484375,0.01708984375t0.49560546875,0.1025390625t0.418701171875,0.213623046875t0.1708984375,0.333251953125t-0.401611328125,0.367431640625t-1.051025390625,0.281982421875t-1.4013671875,0.205078125t-1.4697265625,0.145263671875t-1.273193359375,0.093994140625t-0.794677734375,0.0341796875l-0.0341796875,6.42578125l0.0341796875,3.19580078125q0.52978515625,0,1.58935546875-0.0341796875q0.42724609375-0.01708984375,0.8544921875-0.01708984375q0.6494140625,0,1.3330078125,0.0341796875q1.1279296875,0.05126953125,2.03369140625,0.205078125t1.14501953125,0.546875q0,0.2392578125-0.247802734375,0.384521484375t-0.555419921875,0.213623046875t-0.623779296875,0.08544921875t-0.452880859375,0.01708984375q-1.2646484375,0-2.54638671875-0.05126953125t-2.529296875-0.205078125q0,2.10205078125-0.111083984375,4.169921875t-0.111083984375,4.169921875q0,0.90576171875,0.01708984375,1.785888671875t0.205078125,1.751708984375q0.46142578125-0.0341796875,0.999755859375-0.08544921875t1.09375-0.128173828125t1.068115234375-0.128173828125t0.888671875-0.05126953125q0.205078125,0,0.555419921875,0.05126953125t0.7177734375,0.1708984375t0.63232421875,0.299072265625t0.264892578125,0.418701171875q0,0.2734375-0.504150390625,0.487060546875t-1.290283203125,0.341796875t-1.717529296875,0.179443359375t-1.802978515625,0.068359375t-1.572265625,0.01708984375l-0.9912109375,0q-0.93994140625,0-1.375732421875-0.350341796875t-0.606689453125-0.914306640625q-0.13671875-0.46142578125-0.11962890625-1.04248046875l0-0.2392578125z M99.019653320312,19.0869140625q0-0.80322265625,0.196533203125-1.170654296875t0.56396484375-0.5126953125t0.888671875-0.111083984375t1.221923828125,0.0341796875q1.77734375,0,3.5888671875,0.546875t3.26416015625,1.597900390625t2.34130859375,2.589111328125t0.888671875,3.53759765625q0,1.3330078125-0.384521484375,2.520751953125t-1.085205078125,2.2216796875t-1.640625,1.888427734375t-2.06787109375,1.48681640625q0.46142578125,0.46142578125,1.1962890625,1.632080078125t1.45263671875,2.4951171875t1.273193359375,2.572021484375t0.657958984375,1.8798828125l-0.205078125,0.3076171875q-0.46142578125,0.2734375-1.11083984375,0.29052734375q-0.3076171875,0-0.80322265625-0.076904296875t-0.63232421875-0.452880859375q-0.70068359375-1.96533203125-1.529541015625-4.05029296875t-2.042236328125-3.759765625l0-0.0341796875q-0.42724609375,0.1708984375-0.845947265625,0.333251953125t-0.845947265625,0.299072265625q0.13671875,1.89697265625,0.281982421875,3.734130859375t0.145263671875,3.717041015625q0,0.2392578125-0.230712890625,0.384521484375t-0.521240234375,0.230712890625t-0.589599609375,0.11962890625t-0.487060546875,0.0341796875q-0.1708984375,0-0.487060546875-0.0341796875t-0.606689453125-0.11962890625t-0.504150390625-0.247802734375t-0.213623046875-0.435791015625q0-1.89697265625-0.08544921875-3.785400390625t-0.18798828125-3.768310546875q-0.52978515625-0.341796875-0.52978515625-0.888671875q0-0.42724609375,0.41015625-0.5810546875q-0.205078125-3.60595703125-0.469970703125-7.19482421875t-0.264892578125-7.22900390625z M102.11291503906,18.55712890625q0.2392578125,3.70849609375,0.538330078125,7.33154296875t0.572509765625,7.33154296875q1.1962890625-0.341796875,2.230224609375-1.187744140625t1.785888671875-1.905517578125t1.170654296875-2.30712890625t0.418701171875-2.47802734375q0-1.3671875-0.546875-2.623291015625t-1.45263671875-2.196044921875q-0.9228515625-0.93994140625-2.119140625-1.4697265625q-1.0595703125-0.46142578125-2.2216796875-0.46142578125l-0.3076171875,0z M115.47153320313,39.2529296875q0-0.59814453125,0.41015625-0.760498046875t0.888671875-0.162353515625q0.83740234375,0,1.41845703125,0.751953125t1.102294921875,1.649169921875t1.033935546875,1.649169921875t1.21337890625,0.751953125q0.52978515625,0,0.965576171875-0.264892578125t0.751953125-0.66650390625t0.487060546875-0.90576171875t0.1708984375-0.999755859375q0-1.298828125-0.521240234375-2.68310546875t-1.3330078125-2.85400390625t-1.717529296875-3.0078125t-1.708984375-3.12744140625t-1.3330078125-3.238525390625t-0.52978515625-3.323974609375q0-2.51220703125,1.50390625-3.896484375t3.96484375-1.38427734375q0.83740234375,0,1.69189453125,0.2392578125t1.572265625,0.7177734375t1.170654296875,1.17919921875t0.452880859375,1.640625q0,0.3076171875-0.452880859375,0.401611328125t-0.657958984375,0.093994140625q-0.3076171875,0-0.66650390625-0.076904296875t-0.46142578125-0.418701171875t-0.29052734375-0.7861328125t-0.469970703125-0.828857421875t-0.66650390625-0.66650390625t-0.845947265625-0.281982421875q-0.76904296875,0-1.307373046875,0.316162109375t-0.87158203125,0.845947265625t-0.49560546875,1.187744140625t-0.162353515625,1.358642578125q0,1.640625,0.56396484375,3.306884765625t1.4013671875,3.3154296875t1.820068359375,3.255615234375t1.820068359375,3.12744140625t1.4013671875,2.9736328125t0.56396484375,2.75146484375q0,1.162109375-0.546875,1.96533203125t-1.38427734375,1.307373046875t-1.854248046875,0.73486328125t-1.990966796875,0.230712890625q-1.04248046875,0-2.13623046875-0.418701171875t-1.96533203125-1.153564453125t-1.435546875-1.717529296875t-0.56396484375-2.127685546875z"/><path fill="#" d=""/></svg>
