<?xml version="1.0"?>
<svg version="1.1" xmlns="http://www.w3.org/2000/svg" width="190" height="50" style="border: dashed 2px #aaa"><path fill="#d000fa" d="M41.5625,48.984375l-6.875,0l-7.48046875-12.03125l-2.55859375,1.8359375l0,10.1953125l-6.0546875,0l0-28.5546875l6.0546875,0l0,13.06640625l2.3828125-3.359375l7.734375-9.70703125l6.71875,0l-9.9609375,12.63671875z M65.3861328125,48.984375l-2.0703125-6.796875l-10.41015625,0l-2.0703125,6.796875l-6.5234375,0l10.078125-28.671875l7.40234375,0l10.1171875,28.671875l-6.5234375,0z M61.8705078125,37.109375q-2.87109375-9.23828125-3.232421875-10.44921875t-0.517578125-1.9140625q-0.64453125,2.5-3.69140625,12.36328125l7.44140625,0z M95.108203125,41.0546875q0,3.8671875-2.783203125,6.09375t-7.744140625,2.2265625q-4.5703125,0-8.0859375-1.71875l0-5.625q2.890625,1.2890625,4.892578125,1.81640625t3.662109375,0.52734375q1.9921875,0,3.056640625-0.76171875t1.064453125-2.265625q0-0.83984375-0.46875-1.494140625t-1.376953125-1.259765625t-3.701171875-1.93359375q-2.6171875-1.23046875-3.92578125-2.36328125t-2.08984375-2.63671875t-0.78125-3.515625q0-3.7890625,2.568359375-5.95703125t7.099609375-2.16796875q2.2265625,0,4.248046875,0.52734375t4.228515625,1.484375l-1.953125,4.70703125q-2.28515625-0.9375-3.779296875-1.30859375t-2.939453125-0.37109375q-1.71875,0-2.63671875,0.80078125t-0.91796875,2.08984375q0,0.80078125,0.37109375,1.396484375t1.181640625,1.15234375t3.837890625,2.001953125q4.00390625,1.9140625,5.48828125,3.837890625t1.484375,4.716796875z M126.2755859375,20.4296875l0,18.4765625q0,3.1640625-1.416015625,5.546875t-4.091796875,3.65234375t-6.328125,1.26953125q-5.5078125,0-8.5546875-2.822265625t-3.046875-7.724609375l0-18.3984375l6.03515625,0l0,17.48046875q0,3.30078125,1.328125,4.84375t4.39453125,1.54296875q2.96875,0,4.306640625-1.552734375t1.337890625-4.873046875l0-17.44140625l6.03515625,0z M142.071875,33.10546875l1.953125,0q2.87109375,0,4.23828125-0.95703125t1.3671875-3.0078125q0-2.03125-1.396484375-2.890625t-4.326171875-0.859375l-1.8359375,0l0,7.71484375z M142.071875,38.02734375l0,10.95703125l-6.0546875,0l0-28.5546875l8.3203125,0q5.8203125,0,8.61328125,2.119140625t2.79296875,6.435546875q0,2.51953125-1.38671875,4.482421875t-3.92578125,3.076171875q6.4453125,9.62890625,8.3984375,12.44140625l-6.71875,0l-6.81640625-10.95703125l-3.22265625,0z M165.1728515625,48.984375l0-28.5546875l6.0546875,0l0,28.5546875l-6.0546875,0z M198.644921875,48.984375l-2.0703125-6.796875l-10.41015625,0l-2.0703125,6.796875l-6.5234375,0l10.078125-28.671875l7.40234375,0l10.1171875,28.671875l-6.5234375,0z M195.129296875,37.109375q-2.87109375-9.23828125-3.232421875-10.44921875t-0.517578125-1.9140625q-0.64453125,2.5-3.69140625,12.36328125l7.44140625,0z M236.8435546875,48.984375l-7.6953125,0l-12.421875-21.6015625l-0.17578125,0q0.37109375,5.72265625,0.37109375,8.1640625l0,13.4375l-5.41015625,0l0-28.5546875l7.63671875,0l12.40234375,21.38671875l0.13671875,0q-0.29296875-5.56640625-0.29296875-7.87109375l0-13.515625l5.44921875,0l0,28.5546875z M263.6359375,41.0546875q0,3.8671875-2.783203125,6.09375t-7.744140625,2.2265625q-4.5703125,0-8.0859375-1.71875l0-5.625q2.890625,1.2890625,4.892578125,1.81640625t3.662109375,0.52734375q1.9921875,0,3.056640625-0.76171875t1.064453125-2.265625q0-0.83984375-0.46875-1.494140625t-1.376953125-1.259765625t-3.701171875-1.93359375q-2.6171875-1.23046875-3.92578125-2.36328125t-2.08984375-2.63671875t-0.78125-3.515625q0-3.7890625,2.568359375-5.95703125t7.099609375-2.16796875q2.2265625,0,4.248046875,0.52734375t4.228515625,1.484375l-1.953125,4.70703125q-2.28515625-0.9375-3.779296875-1.30859375t-2.939453125-0.37109375q-1.71875,0-2.63671875,0.80078125t-0.91796875,2.08984375q0,0.80078125,0.37109375,1.396484375t1.181640625,1.15234375t3.837890625,2.001953125q4.00390625,1.9140625,5.48828125,3.837890625t1.484375,4.716796875z"/><path fill="#" d=""/></svg>
