<?xml version="1.0"?>
<svg version="1.1" xmlns="http://www.w3.org/2000/svg" width="400" height="200" style="border: dashed 2px #aaa"><path fill="#" d="M15.9228515625,112.5390625q0.087890625-2.373046875,0.15380859375-4.86328125t0.12451171875-4.91455078125t0.087890625-4.70947265625t0.029296875-4.2626953125q0.029296875-0.3955078125,0.6884765625-0.6298828125t1.57470703125-0.34423828125t1.93359375-0.13916015625t1.80908203125-0.029296875q0.17578125,0,0.732421875-0.0146484375l0.2783203125,0q0.4248046875,0,0.8935546875,0.029296875q0.615234375,0.0439453125,1.07666015625,0.1904296875t0.46142578125,0.4248046875q0,0.205078125-0.1611328125,0.32958984375t-0.37353515625,0.18310546875t-0.439453125,0.0732421875t-0.31494140625,0.0146484375q-1.376953125,0-2.724609375-0.0439453125q-0.3662109375-0.0146484375-0.7470703125-0.0146484375q-0.99609375,0-2.021484375,0.087890625q0.05859375,0.17578125,0.09521484375,1.06201171875t0.03662109375,1.99951171875t-0.0146484375,2.17529296875t0,1.63330078125l0,3.80859375q0.4541015625-0.029296875,0.8935546875-0.029296875l0.87890625,0l0.5859375-0.029296875q0.29296875-0.0146484375,0.615234375-0.0146484375q0.3369140625,0,0.6884765625,0.0146484375q0.703125,0.029296875,1.28173828125,0.16845703125t0.57861328125,0.49072265625q0,0.263671875-0.2197265625,0.38818359375t-0.49072265625,0.18310546875t-0.5126953125,0.05859375l-0.27099609375,0q-0.8349609375,0-1.73583984375-0.05859375t-1.67724609375-0.05859375q-0.146484375,0.05859375-0.31494140625,0.0439453125t-0.30029296875-0.0146484375q0,2.197265625-0.0439453125,4.37255859375t-0.1025390625,4.32861328125q0,0.4248046875-0.53466796875,0.556640625t-1.01806640625,0.1318359375q-0.5419921875,0-0.85693359375-0.1318359375t-0.44677734375-0.43212890625t-0.1611328125-0.79833984375q-0.0146484375-0.2783203125-0.029296875-0.615234375q0-0.2783203125,0.0146484375-0.6005859375z M27.900439453125,107.470703125l0-2.314453125q0-2.40234375,0.08056640625-4.76806640625t0.13916015625-4.76806640625q0-0.4541015625-0.029296875-1.0107421875q-0.0146484375-0.1611328125-0.0146484375-0.3076171875q0-0.3662109375,0.05859375-0.7177734375q0.0732421875-0.46875,0.35888671875-0.8056640625t0.94482421875-0.3369140625q0.5419921875,0,0.82763671875,0.1171875t0.40283203125,0.34423828125t0.1318359375,0.5712890625t0.0146484375,0.79833984375q0,2.431640625-0.05859375,4.8779296875q-0.0439453125,1.6259765625-0.0439453125,3.251953125q0,0.8203125,0.0146484375,1.640625q0.029296875,2.431640625,0.22705078125,4.86328125t0.66650390625,4.8046875q1.46484375-0.05859375,2.9296875-0.146484375t2.9296875-0.087890625q0.146484375,0,0.41748046875,0.029296875t0.5419921875,0.1025390625t0.46142578125,0.1904296875t0.1904296875,0.3369140625q0,0.146484375-0.1318359375,0.2490234375t-0.2490234375,0.1611328125l-0.029296875,0q-0.234375,0.1171875-0.93017578125,0.22705078125t-1.58203125,0.16845703125t-1.8603515625,0.1025390625t-1.8310546875,0.0732421875t-1.48681640625,0.0439453125t-0.7763671875,0.0146484375l-0.1318359375,0q-0.3515625,0-0.791015625-0.1171875q-0.52734375-0.146484375-0.6591796875-0.5712890625q-0.263671875-1.083984375-0.41748046875-2.24853515625t-0.234375-2.36572265625t-0.08056640625-2.40234375z M41.19638671875,104.6435546875q0-0.8642578125,0.09521484375-2.0947265625t0.3515625-2.5634765625t0.6884765625-2.6513671875t1.10595703125-2.3291015625t1.611328125-1.5966796875q0.7763671875-0.4833984375,1.787109375-0.4833984375q0.205078125,0,0.4248046875,0.029296875q2.548828125,0.234375,3.91845703125,1.16455078125t1.99951171875,2.3583984375t0.732421875,3.251953125t0.1025390625,3.84521484375q0,1.6259765625-0.30029296875,3.53759765625t-1.06201171875,3.56689453125t-2.10205078125,2.76123046875t-3.40576171875,1.10595703125q-1.259765625,0-2.20458984375-0.46142578125t-1.60400390625-1.23046875t-1.083984375-1.787109375t-0.64453125-2.109375t-0.31494140625-2.20458984375t-0.09521484375-2.109375z M44.17001953125,103.984375q0,0.6298828125,0.0146484375,1.54541015625t0.12451171875,1.92626953125t0.28564453125,2.01416015625t0.52001953125,1.82373046875t0.87158203125,1.34765625t1.2744140625,0.556640625l0.0732421875,0q0.673828125,0,1.201171875-0.5126953125q0.556640625-0.5419921875,0.98876953125-1.3037109375t0.7470703125-1.60400390625t0.56396484375-1.44287109375l-0.05859375,0.1318359375q0.4248046875-1.34765625,0.5712890625-2.76123046875t0.146484375-2.79052734375q0-0.6591796875-0.087890625-1.58935546875t-0.28564453125-1.94091796875t-0.5126953125-1.99951171875t-0.79833984375-1.72119140625t-1.1279296875-1.11328125q-0.46875-0.2783203125-1.0400390625-0.29296875q-0.2197265625,0-0.439453125,0.0439453125q-0.7470703125,0.146484375-1.2744140625,0.732421875t-0.85693359375,1.44287109375t-0.50537109375,1.875t-0.27099609375,2.05078125t-0.10986328125,1.9775390625t-0.0146484375,1.60400390625z M50.77646484375,108.49609375l0-0.029296875l0,0.029296875z M57.041162109375,92.8369140625q0-0.29296875,0.4541015625-0.41748046875t0.7470703125-0.12451171875q0.3369140625,0,0.73974609375,0.087890625t0.49072265625,0.4541015625q0.4248046875,1.7138671875,0.65185546875,3.49365234375t0.34423828125,3.58154296875t0.1904296875,3.58154296875t0.1611328125,3.52294921875q0.3955078125-1.7431640625,0.81298828125-3.46435546875t1.09130859375-3.43505859375l0-1.171875q0-0.7470703125,0.52001953125-1.07666015625t1.39892578125-0.32958984375q0.087890625,0,0.40283203125,0.0439453125t0.31494140625,0.29296875q-0.05859375,0.17578125-0.13916015625,0.3369140625t-0.08056640625,0.3515625q0,2.2265625,0.52734375,4.56298828125t1.0400390625,4.54833984375q0.29296875-1.8896484375,0.673828125-3.7646484375t0.791015625-3.7353515625q0.5419921875-2.490234375,0.82763671875-4.13818359375t0.5419921875-2.607421875t0.556640625-1.3623046875t0.84228515625-0.40283203125q0.3369140625-0.029296875,0.6298828125,0.1171875t0.234375,0.4833984375q-1.0546875,5.09765625-1.97021484375,10.224609375t-1.86767578125,10.25390625q0,0.29296875,0.1025390625,0.6884765625t0.1025390625,0.703125q0,0.17578125-0.1611328125,0.29296875t-0.38818359375,0.19775390625t-0.498046875,0.10986328125t-0.47607421875,0.029296875q-0.4541015625,0-0.9521484375-0.13916015625t-0.64453125-0.79833984375q-0.5126953125-2.28515625-0.94482421875-4.59228515625t-0.79833984375-4.65087890625q-0.1171875,0.5419921875-0.2197265625,1.0986328125t-0.1904296875,1.1279296875q-0.4248046875,2.490234375-0.9375,4.98046875t-0.5126953125,5.0390625q0,0.6298828125-0.263671875,0.81298828125t-0.8935546875,0.18310546875q-0.4833984375,0-0.8203125-0.1611328125q-0.263671875-0.146484375-0.498046875-0.263671875q-0.205078125-0.1171875-0.37353515625-0.27099609375t-0.16845703125-0.30029296875q-0.234375-3.1787109375-0.32958984375-6.3134765625t-0.21240234375-6.3134765625q-0.1171875-2.8564453125-0.34423828125-5.70556640625t-0.50537109375-5.66162109375z M74.8341796875,113.41796875q0.029296875-0.615234375,0.029296875-1.201171875q0-2.1240234375,0.15380859375-4.2333984375t0.21240234375-4.2333984375q0.087890625-2.431640625,0.1611328125-4.8193359375t0.29296875-4.8046875q0.05859375-0.6005859375,0.34423828125-0.78369140625t0.85693359375-0.18310546875q0.263671875,0,0.703125,0.1025390625t0.439453125,0.498046875q0.205078125,0.029296875,0.41015625,0.029296875q0.3076171875,0,0.6298828125-0.05859375q0.52734375-0.087890625,1.07666015625-0.19775390625t1.09130859375-0.21240234375t1.0400390625-0.1025390625q0.1171875,0,0.32958984375,0.0146484375t0.4248046875,0.087890625t0.35888671875,0.18310546875t0.146484375,0.28564453125t-0.34423828125,0.31494140625t-0.90087890625,0.24169921875t-1.201171875,0.17578125t-1.259765625,0.12451171875t-1.09130859375,0.08056640625t-0.68115234375,0.029296875l-0.029296875,5.5078125l0.029296875,2.7392578125q0.4541015625,0,1.3623046875-0.029296875q0.3662109375-0.0146484375,0.732421875-0.0146484375q0.556640625,0,1.142578125,0.029296875q0.966796875,0.0439453125,1.7431640625,0.17578125t0.9814453125,0.46875q0,0.205078125-0.21240234375,0.32958984375t-0.47607421875,0.18310546875t-0.53466796875,0.0732421875t-0.38818359375,0.0146484375q-1.083984375,0-2.1826171875-0.0439453125t-2.16796875-0.17578125q0,1.8017578125-0.09521484375,3.57421875t-0.09521484375,3.57421875q0,0.7763671875,0.0146484375,1.53076171875t0.17578125,1.50146484375q0.3955078125-0.029296875,0.85693359375-0.0732421875t0.9375-0.10986328125t0.91552734375-0.10986328125t0.76171875-0.0439453125q0.17578125,0,0.47607421875,0.0439453125t0.615234375,0.146484375t0.5419921875,0.25634765625t0.22705078125,0.35888671875q0,0.234375-0.43212890625,0.41748046875t-1.10595703125,0.29296875t-1.47216796875,0.15380859375t-1.54541015625,0.05859375t-1.34765625,0.0146484375l-0.849609375,0q-0.8056640625,0-1.17919921875-0.30029296875t-0.52001953125-0.78369140625q-0.1171875-0.3955078125-0.1025390625-0.8935546875l0-0.205078125z M87.016845703125,94.931640625q0-0.6884765625,0.16845703125-1.00341796875t0.4833984375-0.439453125t0.76171875-0.09521484375t1.04736328125,0.029296875q1.5234375,0,3.076171875,0.46875t2.7978515625,1.36962890625t2.0068359375,2.21923828125t0.76171875,3.0322265625q0,1.142578125-0.32958984375,2.16064453125t-0.93017578125,1.904296875t-1.40625,1.61865234375t-1.7724609375,1.2744140625q0.3955078125,0.3955078125,1.025390625,1.39892578125t1.2451171875,2.138671875t1.09130859375,2.20458984375t0.56396484375,1.611328125l-0.17578125,0.263671875q-0.3955078125,0.234375-0.9521484375,0.2490234375q-0.263671875,0-0.6884765625-0.06591796875t-0.5419921875-0.38818359375q-0.6005859375-1.6845703125-1.31103515625-3.4716796875t-1.75048828125-3.22265625l0-0.029296875q-0.3662109375,0.146484375-0.72509765625,0.28564453125t-0.72509765625,0.25634765625q0.1171875,1.6259765625,0.24169921875,3.20068359375t0.12451171875,3.18603515625q0,0.205078125-0.19775390625,0.32958984375t-0.44677734375,0.19775390625t-0.50537109375,0.1025390625t-0.41748046875,0.029296875q-0.146484375,0-0.41748046875-0.029296875t-0.52001953125-0.1025390625t-0.43212890625-0.21240234375t-0.18310546875-0.37353515625q0-1.6259765625-0.0732421875-3.24462890625t-0.1611328125-3.22998046875q-0.4541015625-0.29296875-0.4541015625-0.76171875q0-0.3662109375,0.3515625-0.498046875q-0.17578125-3.0908203125-0.40283203125-6.1669921875t-0.22705078125-6.1962890625z M89.668212890625,94.4775390625q0.205078125,3.1787109375,0.46142578125,6.2841796875t0.49072265625,6.2841796875q1.025390625-0.29296875,1.91162109375-1.01806640625t1.53076171875-1.63330078125t1.00341796875-1.9775390625t0.35888671875-2.1240234375q0-1.171875-0.46875-2.24853515625t-1.2451171875-1.88232421875q-0.791015625-0.8056640625-1.81640625-1.259765625q-0.908203125-0.3955078125-1.904296875-0.3955078125l-0.263671875,0z M101.11845703125,112.216796875q0-0.5126953125,0.3515625-0.65185546875t0.76171875-0.13916015625q0.7177734375,0,1.2158203125,0.64453125t0.94482421875,1.41357421875t0.88623046875,1.41357421875t1.0400390625,0.64453125q0.4541015625,0,0.82763671875-0.22705078125t0.64453125-0.5712890625t0.41748046875-0.7763671875t0.146484375-0.85693359375q0-1.11328125-0.44677734375-2.2998046875t-1.142578125-2.4462890625t-1.47216796875-2.578125t-1.46484375-2.6806640625t-1.142578125-2.77587890625t-0.4541015625-2.84912109375q0-2.1533203125,1.2890625-3.33984375t3.3984375-1.1865234375q0.7177734375,0,1.4501953125,0.205078125t1.34765625,0.615234375t1.00341796875,1.0107421875t0.38818359375,1.40625q0,0.263671875-0.38818359375,0.34423828125t-0.56396484375,0.08056640625q-0.263671875,0-0.5712890625-0.06591796875t-0.3955078125-0.35888671875t-0.2490234375-0.673828125t-0.40283203125-0.71044921875t-0.5712890625-0.5712890625t-0.72509765625-0.24169921875q-0.6591796875,0-1.12060546875,0.27099609375t-0.7470703125,0.72509765625t-0.4248046875,1.01806640625t-0.13916015625,1.16455078125q0,1.40625,0.4833984375,2.83447265625t1.201171875,2.841796875t1.56005859375,2.79052734375t1.56005859375,2.6806640625t1.201171875,2.548828125t0.4833984375,2.3583984375q0,0.99609375-0.46875,1.6845703125t-1.1865234375,1.12060546875t-1.58935546875,0.6298828125t-1.70654296875,0.19775390625q-0.8935546875,0-1.8310546875-0.35888671875t-1.6845703125-0.98876953125t-1.23046875-1.47216796875t-0.4833984375-1.82373046875z"/><path fill="#" d=""/></svg>
